<svg width="500" height="445" viewBox="0 0 500 445" fill="none" xmlns="http://www.w3.org/2000/svg">
<g filter="url(#filter0_d_53_2)">
<path d="M4.09998 52.0902C6.41998 52.5102 6.02998 50.5202 6.64998 49.3302C13.26 36.5502 21.22 24.9602 35.59 19.9502C45.63 16.4502 56.38 16.5202 66.25 19.0702C83.49 23.5302 100.67 21.6302 117.86 21.0202C156.43 19.6502 194.99 17.7502 233.55 16.0602C238.82 15.8302 244.08 15.5302 249.34 15.3002C253.86 15.1002 258.74 16.3602 260.19 9.51024C260.81 6.57024 264.68 6.10024 267.74 5.95024C293.44 4.73024 319.14 3.50024 344.84 2.27024C349.32 2.06024 351.94 4.64024 353.51 8.38024C361.84 28.2102 370.1 48.0702 378.34 67.9302C380.38 72.8502 379.29 76.9202 373.99 78.5402C370.7 79.5502 371.47 80.9502 372.35 83.0302C376.12 91.9702 379.95 100.89 383.51 109.91C384.72 112.97 386.19 114 389.62 113.49C398.06 112.24 399.91 113.45 403.29 121.09C410.28 136.91 416.43 153.18 424.47 168.45C431.07 180.99 428.81 192.91 425.76 205.2C425.22 207.36 424.82 208.98 425.69 211.06C431.84 225.64 437.97 240.22 443.91 254.88C445.04 257.66 446.45 258.86 449.46 258.51C455.92 257.76 459.46 261.04 461.87 266.87C472.42 292.41 483.28 317.82 493.96 343.3C497.51 351.76 495.44 355.43 486.31 356.86C482.77 357.41 479.17 357.91 475.6 357.83C469.16 357.69 465.18 360.36 462.86 366.45C461.81 369.23 461.44 371.36 462.71 374.13C465.87 381.03 468.77 388.06 471.59 395.1C474.41 402.15 472.34 406.32 464.75 407.2C445.05 409.49 425.3 411.32 405.57 413.3C392.97 414.57 380.37 415.75 367.77 417.03C362.41 417.57 357.97 416.44 356.31 410.63C355.29 407.07 352.66 408.38 350.63 408.6C326.93 411.21 303.25 413.94 279.56 416.61C229.04 422.31 178.51 428 127.98 433.7C120.64 434.53 113.31 435.49 105.96 436.16C81.67 438.39 72.06 430.23 73.53 405.9C74.29 393.32 71.66 381.66 69.28 369.81C52.35 285.43 35.07 201.08 18.1 116.66C15.99 106.16 15.12 95.4102 13.66 84.7802C12.95 79.6302 12.48 74.4902 8.37998 70.4402C6.49998 68.5802 5.49998 65.8302 4.10998 63.4902C4.10998 59.6902 4.10998 55.8902 4.10998 52.0902H4.09998ZM303.15 154.7C303.75 151.33 300.88 148.91 300.67 145.76C304.03 145.42 304.77 148.1 305.54 150.34C306.54 153.24 308.76 154.5 311.22 155.84C314.88 157.82 315.81 156.83 315.87 152.86C316.06 141.11 316.61 129.36 317 117.6C317.24 110.35 316.94 103.15 315.57 95.6902C299.66 105.67 285.87 117.56 271.1 128.11C269.95 128.93 268.24 129.99 269.03 131.58C269.83 133.2 271.93 133.28 273.56 133.08C281.84 132.08 288.71 135.88 295.48 139.64C297.74 140.89 301.16 141.9 300.7 145.78C298.75 145.93 297.78 144.41 296.46 143.39C285.58 135 266.48 132.28 257.46 138.35C247.91 144.78 239.51 152.72 230.83 160.28C226.89 161.53 224.16 164.63 220.88 166.88C217.47 169.22 217.53 171.83 220.2 175.06C227.03 183.34 233.89 191.62 240.11 200.34C242.93 204.29 245.82 205.91 250.54 205.53C267.08 204.19 283.61 202.66 300.18 201.99C315.44 201.37 315.21 201.82 314.68 186.67C314.5 181.52 312.38 184.93 310.85 185.16L310.5 184.76C311.76 180.28 313.03 175.79 314.29 171.31C314.27 169.05 315.99 166.59 313.53 164.61C313.05 164.46 312.57 164.32 312.08 164.17C308.8 162.66 307.09 159.41 304.39 157.25C304.5 156.14 304.28 155.19 303.14 154.69L303.15 154.7ZM350.15 168.78C343.46 169.49 341.25 172.04 342.56 177.57C343.33 180.82 344.24 184.04 344.82 187.32C345.58 191.61 344.63 197.67 347.12 199.78C349.45 201.74 355.3 199.26 359.61 199.21C367.36 199.12 375.09 199.06 382.73 197.64C384.26 197.36 386.44 197.15 386.45 195.03C386.45 193.32 385.09 192.65 383.28 191.96C379.62 190.58 376.29 188.3 372.82 186.39C371.98 185.76 371.2 185.04 370.3 184.5C362.94 180.08 358.58 171.82 350.15 168.78ZM358.58 39.4202C355.68 32.3002 352.22 25.3402 350.02 18.0102C347.8 10.6002 343.69 8.14024 336.48 10.1702C328.15 9.13024 319.87 10.4002 311.57 10.7102C299.38 11.3802 287.19 12.1202 274.99 12.6902C265.81 13.1202 265.81 13.0302 268.46 21.4702C252.26 22.3102 236.06 23.2702 219.86 23.9802C179.22 25.7702 138.57 27.5002 97.92 29.1602C89.71 29.5002 81.34 30.2102 73.39 27.8202C64.5 25.1502 55.54 25.2202 46.5 25.4102C32.27 25.7102 13.87 42.0302 12.51 56.2702C12.08 60.8102 11.22 66.7702 18.03 68.6502C18.46 70.2602 19.05 71.8502 19.28 73.4902C21.25 87.1802 22.66 100.98 25.19 114.57C30.1 140.99 35.57 167.31 40.9 193.65C52.9 252.92 65.02 312.17 76.91 371.46C79.25 383.1 82.19 394.48 80.71 406.9C78.73 423.55 86.4 430.67 102.67 429.44C115.02 428.5 127.33 426.86 139.64 425.47C157.36 423.47 175.08 421.41 192.81 419.4C205.32 417.98 217.83 416.61 230.33 415.17C247.21 413.23 264.08 411.23 280.96 409.28C294.51 407.71 308.05 406.13 321.61 404.64C334.55 403.22 347.49 401.92 360.44 400.57C363.56 409.94 363.58 410.13 372.83 409.32C391.9 407.64 410.95 405.79 430 403.91C441.79 402.75 453.56 401.42 465.86 400.11C461.54 389.67 457.54 380 453.54 370.33C455.17 363.87 459.85 358.81 461.79 352.5C470.57 351.48 479.36 350.46 488.83 349.36C486.38 343.93 484.27 339.23 482.15 334.54C480.35 330.3 478.55 326.06 476.75 321.82C474.4 314.78 471.58 307.95 468.11 301.39C465.3 293.36 462.54 285.32 457.93 278.07C455.2 265.34 450.55 262.44 441.48 267.8C440.95 266.45 440.47 265.08 439.88 263.76C430.43 242.35 422.57 220.27 412.36 199.18C411.28 196.94 410.54 196.3 408.28 197.06C404.52 198.31 398.54 196.81 400 204.22C400.13 204.86 398.79 205.79 398.14 206.59C396.42 206.71 394.7 206.83 392.98 206.95C388.44 208.49 384.03 206.45 379.52 206.44C364.77 206.38 350.12 208.86 335.35 208.02C331.35 207.79 327.33 208.02 323.31 207.98C321.15 207.96 319.72 208.46 319.57 211.07C318.79 224.29 317.9 237.51 317.04 250.72C316.12 264.72 317.8 278.72 317.04 292.75C316.73 298.36 314.47 301.68 309.92 303.43C304.98 305.33 302.67 300.79 300.5 297.78C296.36 292.04 293.07 285.69 289.1 279.81C274.96 258.91 260.29 238.38 245.23 218.13C241.89 213.64 238.27 212.07 233.42 213.19C223.31 215.53 212.99 215.63 202.75 216.7C195.06 217.51 187.4 218.67 179.76 219.87C167.39 221.81 155.19 225.02 142.51 224.34C140.6 224.24 138.53 224.45 137.85 222.06C137.25 219.93 138.37 218.45 140.02 217.23C152.68 207.85 165.13 198.17 178.05 189.16C186.34 183.37 194.57 177.55 202.62 171.44C205.88 168.97 205.25 167.3 203.24 164.93C191.95 151.61 180.71 138.26 169.36 125C161.58 115.9 153.6 106.98 145.87 97.8402C144.32 96.0002 142.58 93.6702 144.75 91.0202C146.69 88.6602 148.81 90.0902 151.08 90.6202C169.38 94.9302 185.74 104.34 203.34 110.51C219.78 116.27 235.83 123.16 251.99 129.7C254.63 130.77 256.35 130.61 258.73 128.74C275.73 115.35 292.9 102.18 310.05 88.9702C313.27 86.4902 316.36 81.5402 320.75 84.2902C324.37 86.5702 323.5 91.9002 323.4 96.0502C322.9 116.05 322.29 136.05 321.7 156.05C321.64 157.94 320.98 160.36 323.03 161.19C327.32 162.93 330.98 166.2 336.12 167.23C334.72 156.21 330.27 146.44 329.92 135.88C335.35 142.15 336.09 150.09 337.25 157.71C338.46 165.67 339.27 166.31 346.43 162.04C362.02 167.81 374.53 178.57 388.06 187.67C390.46 190.12 390.78 195 394.99 195.13C400.27 195.29 405.77 195.16 410.81 193.81C414.69 192.77 417.52 192.27 420.27 197.63C421.06 192.26 421.59 188.63 422.12 185C422.44 183.28 422.07 181.74 421.35 180.13C412.71 160.73 404.13 141.29 395.54 121.86C395.45 121.13 395.09 120.73 394.31 120.86L390.82 120.91C388.93 120.56 386.99 119.96 385.56 121.95C384.34 122.02 383.13 122.09 381.91 122.16C380.68 120.29 379.45 118.41 378.22 116.54C372.28 101.85 366.33 87.1602 360.39 72.4702H372.59C369.79 66.1902 367.44 60.9002 365.08 55.6002C362.92 50.2102 360.76 44.8202 358.6 39.4402L358.58 39.4202ZM307.12 288.53C307.12 286.03 306.95 283.92 307.15 281.84C309.24 259.09 312.34 236.44 313.33 213.58C313.53 208.99 312.49 207.84 308.04 207.88C289.99 208.04 272.1 210.37 254.12 211.46C250.33 211.69 250.45 213.42 252.36 215.9C255.17 219.56 257.97 223.22 260.76 226.9C273.59 243.8 286.36 260.75 297.52 278.82C299.82 282.55 301.54 286.71 307.12 288.53ZM159.67 101.91C164.36 107.66 169.38 111.98 173.33 116.93C184.81 131.33 196.98 145.19 208.04 159.91C210.72 163.48 212.74 164.47 216.63 161.28C225.56 153.97 234.72 146.92 244.06 140.13C248.39 136.98 247.93 135.21 243.31 133.58C222.94 126.36 203.21 117.4 182.48 111.15C174.93 108.87 168.74 103.31 159.67 101.9V101.91ZM162.76 215.17C170.94 214.08 178.81 212.89 186.72 212.02C201.51 210.4 216.33 208.98 231.13 207.45C234.72 207.08 235.38 205.82 232.94 202.74C226.31 194.39 219.94 185.83 213.45 177.36C211.13 174.33 209.05 175.45 206.56 177.44C200.52 182.29 194.37 187.01 188.08 191.53C179.21 197.91 169.93 203.72 161.52 210.75C160.46 211.64 158.28 211.9 158.75 213.74C159.31 215.97 161.53 214.91 162.76 215.17ZM330.22 200.56C333.67 200.68 337.84 200.47 341.93 199.32C343.05 199 344.91 199.26 344.41 197.43C342.61 190.81 341.33 183.88 338.38 177.79C336.03 172.95 329.59 172.61 325.01 170.23C322.28 168.81 320.83 170.32 320.9 173.49C321.04 179.56 320.56 185.6 320.04 191.66C319.26 200.86 319.56 200.89 330.21 200.57L330.22 200.56Z" fill="#1E212F"/>
<path d="M18.02 68.6404C11.21 66.7604 12.07 60.8004 12.5 56.2604C13.86 42.0204 32.26 25.7004 46.49 25.4004C55.53 25.2104 64.5 25.1404 73.38 27.8104C81.32 30.2004 89.7 29.4804 97.91 29.1504C138.56 27.4904 179.2 25.7704 219.85 23.9704C236.06 23.2504 252.25 22.3004 268.45 21.4604C285.7 28.6704 303.79 30.3504 322.19 29.1304C328.21 28.7304 331.76 30.6004 333.36 36.3704C337.68 51.8804 347.78 63.0905 360.36 72.4405C366.3 87.1305 372.25 101.82 378.19 116.51C376.44 118.66 373.81 117.3 371.82 118.08C365.71 120.48 364.1 117.05 362.54 112.11C361.09 107.51 360.82 102.19 356.37 98.9305L356.41 98.9705C354.81 90.5205 351.17 82.7704 348.12 74.8204C346.2 69.8204 342.31 72.1504 339.66 72.8404C333.17 74.5204 327.23 73.3304 321.17 71.2404C313.95 68.7504 308.27 63.8905 302.11 58.5005C301.71 62.7105 304.44 64.1205 306.3 65.8005C315.3 73.9705 326.16 78.2905 338.06 79.7505C341.57 80.1805 343.05 81.4104 344.32 84.5704C348.62 95.2604 353.27 105.81 357.91 116.35C359.3 119.51 357.4 120.01 355.13 120.41C350.39 121.24 345.62 121.93 340.89 122.85C331.83 124.62 330.15 126.66 329.88 135.84C330.22 146.4 334.68 156.16 336.08 167.19C330.94 166.16 327.29 162.89 322.99 161.15C320.94 160.32 321.61 157.89 321.66 156.01C322.25 136.01 322.86 116.01 323.36 96.0105C323.46 91.8605 324.33 86.5205 320.71 84.2505C316.32 81.5005 313.23 86.4505 310.01 88.9305C292.87 102.14 275.69 115.31 258.69 128.7C256.31 130.58 254.59 130.73 251.95 129.66C235.78 123.13 219.74 116.24 203.3 110.47C185.7 104.3 169.34 94.8905 151.04 90.5805C148.77 90.0505 146.66 88.6205 144.71 90.9805C142.54 93.6205 144.27 95.9605 145.83 97.8005C153.56 106.94 161.54 115.86 169.32 124.96C180.66 138.23 191.91 151.58 203.2 164.89C205.21 167.26 205.84 168.93 202.58 171.4C194.53 177.51 186.3 183.33 178.01 189.12C165.1 198.14 152.64 207.81 139.98 217.19C138.33 218.41 137.2 219.89 137.81 222.02C138.49 224.41 140.56 224.2 142.47 224.3C155.15 224.98 167.36 221.78 179.72 219.83C187.36 218.63 195.02 217.46 202.71 216.66C212.94 215.58 223.26 215.49 233.38 213.15C238.23 212.03 241.85 213.59 245.19 218.09C260.25 238.35 274.92 258.87 289.06 279.77C293.03 285.64 296.32 291.99 300.46 297.74C302.63 300.75 304.94 305.29 309.88 303.39C314.43 301.64 316.7 298.32 317 292.71C317.77 278.68 316.09 264.68 317 250.68C317.86 237.46 318.75 224.25 319.53 211.03C319.68 208.43 321.11 207.92 323.27 207.94C327.28 207.98 331.31 207.75 335.31 207.98C350.08 208.82 364.73 206.35 379.48 206.4C383.99 206.42 388.4 208.45 392.94 206.91C393.74 209.51 394.44 212.15 395.37 214.7C398.88 224.33 402.47 233.92 406.01 243.54C406.71 245.43 408.23 247.58 404.65 248.36C390.34 251.47 383.66 262.38 380.13 274.83C375.25 292.05 377.96 308.93 386.96 324.51C388.92 327.9 389.07 329.46 384.71 329.42C377.45 329.35 370.41 331.12 363.02 330.98C344.7 330.63 326.61 334.28 308.42 336.19C287.4 338.4 266.58 342.54 245.31 342.18C243.84 342.16 241.92 341.8 240.99 342.56C237.24 345.6 233.29 342.81 229.5 343.32C228.04 343.52 225.71 342.32 226.55 341.03C230.2 335.49 227.25 329.64 227.98 324.03C229.58 311.68 225.39 301.47 216.95 292.71L216.98 292.75C216.83 291.72 217.03 290.44 216.48 289.7C206.04 275.64 192.37 265.69 175.43 261.75C166.81 259.75 157.19 257.93 148.51 263.53C146.28 264.97 144.84 267.78 141.27 267.74C138.22 254.17 134.76 240.6 132.18 226.87C128.34 206.45 123.35 186.31 117.85 166.31C113.18 149.34 107.71 132.6 103.02 115.64C99.85 104.17 100.18 104.36 112.33 103.97C124.67 103.57 134.92 99.4305 141.08 87.4705C148.37 73.3205 153.34 59.3105 144.56 44.0205C143.47 42.1205 143.66 40.8704 146.23 40.6704C149.56 40.4004 152.9 39.5504 156.21 39.7104C169.22 40.3504 182.19 38.9105 195.01 37.6105C208.64 36.2305 222.3 36.3704 235.78 36.6604C250.22 36.9704 264.65 36.2905 279.09 36.5905C282.3 36.6605 285.21 36.2505 287.93 38.1805C288.41 41.8305 288.98 45.4204 293.03 47.0104C292.87 49.7504 293.5 51.9105 296.78 52.1305C296.65 54.5005 297.12 56.3804 300.2 56.9604C300.09 54.0104 298.45 53.0504 296.85 52.0504C295.8 50.2004 295.28 47.9505 293.02 47.0205C292.09 43.6305 291.07 40.3005 287.99 38.1305C288.41 33.6505 286.73 31.3204 281.87 31.8104C279.15 32.0804 276.33 31.5805 273.65 32.0205C255.04 35.0405 236.26 32.5705 217.54 33.7405C205.35 34.5005 192.89 35.4205 180.51 34.5605C177.53 34.3505 174.02 37.1104 171.47 36.2804C162.36 33.3104 153.6 33.3504 144.68 36.6004C143.66 36.9704 142.23 36.4804 141.06 36.1404C139.97 35.8204 139.08 34.0205 137.83 35.2505C136.45 36.5905 137.65 38.1105 138.45 39.2205C142.01 44.1505 143.45 49.4605 143.81 55.6604C144.4 65.9104 143.67 75.9405 136.2 83.1505C129.45 89.6705 123.86 98.4104 111.82 97.8404C103.41 97.4404 97.6 95.6105 95.57 87.1805C92.28 73.5605 86.87 60.5105 85.01 46.5005C84.53 42.8605 81.87 40.3104 77.88 39.3704C69.95 37.5104 62.21 36.0804 53.8 36.6204C43.61 37.2804 35 39.9805 29.1 48.2405C24.62 54.5105 17.08 59.3604 18.03 68.6404H18.02ZM130.89 72.5304C131 70.5304 129.98 69.2204 128.3 68.3204C124.94 65.4104 122.03 66.8704 119.82 69.6704C117.34 72.8204 119.6 75.4905 121.47 78.0405C123.88 81.3205 126.51 80.6305 129.69 79.0105C133.3 77.1705 132.56 75.0704 130.89 72.5304ZM318.13 53.6105C317.33 58.7705 321.52 60.1905 326.1 60.7505C329.08 61.1205 329.29 57.9304 329.05 56.4204C328.33 51.8304 324.78 49.2805 320.56 48.5005C318.11 48.0505 317.45 50.3705 318.13 53.6105Z" fill="#BE1918"/>
<path d="M18.02 68.6404C17.07 59.3504 24.61 54.5104 29.09 48.2404C34.99 39.9804 43.61 37.2704 53.79 36.6204C62.2 36.0804 69.94 37.5004 77.87 39.3704C81.86 40.3104 84.52 42.8604 85 46.5004C86.86 60.5104 92.27 73.5604 95.56 87.1804C97.6 95.6104 103.4 97.4404 111.81 97.8404C123.86 98.4104 129.44 89.6704 136.19 83.1504C143.66 75.9404 144.39 65.9004 143.8 55.6604C143.44 49.4604 142 44.1504 138.44 39.2204C137.64 38.1104 136.44 36.6004 137.82 35.2504C139.08 34.0204 139.96 35.8204 141.05 36.1404C142.22 36.4804 143.65 36.9704 144.67 36.6004C153.59 33.3504 162.35 33.3104 171.46 36.2804C174 37.1104 177.52 34.3604 180.5 34.5604C192.88 35.4204 205.35 34.5004 217.53 33.7404C236.24 32.5704 255.03 35.0404 273.64 32.0204C276.32 31.5904 279.14 32.0904 281.86 31.8104C286.72 31.3204 288.4 33.6504 287.98 38.1304L287.92 38.1804C285.2 36.2504 282.29 36.6504 279.08 36.5904C264.65 36.2904 250.22 36.9704 235.77 36.6604C222.29 36.3704 208.63 36.2304 195 37.6104C182.18 38.9104 169.22 40.3504 156.2 39.7104C152.9 39.5504 149.56 40.4004 146.22 40.6704C143.66 40.8804 143.46 42.1204 144.55 44.0204C153.33 59.3104 148.36 73.3204 141.07 87.4704C134.91 99.4304 124.66 103.57 112.32 103.97C100.17 104.36 99.83 104.17 103.01 115.64C107.7 132.6 113.17 149.35 117.84 166.31C123.34 186.32 128.34 206.45 132.17 226.87C134.75 240.6 138.21 254.17 141.26 267.74C144.83 267.79 146.27 264.97 148.5 263.53C157.18 257.92 166.8 259.74 175.42 261.75C192.36 265.69 206.03 275.64 216.47 289.7C217.02 290.43 216.82 291.72 216.97 292.75C215.85 292.7 215.06 292.2 214.35 291.28C198.31 270.2 177.06 263.62 151.58 268.77C146 269.9 143.09 274.2 144.51 279.79C146.83 288.9 149.07 298.03 152.26 306.91C156.9 319.86 159.1 333.14 159.19 347.04C159.23 352.72 157.32 353.09 153.55 352.76C146.46 352.14 139.45 350.37 132.27 351.05C119.8 352.23 107.39 352.98 98.78 364.51C91.13 374.75 84.31 393.39 87.44 402.08C90.21 395.36 92.77 388.97 95.49 382.65C97.48 378.02 99.17 372.37 103.49 370.11C111.43 365.96 119.85 361.32 128.94 361.36C154.76 361.47 180.45 359.89 206.07 357.2C217.96 355.95 229.85 354.83 241.76 354.02C256.97 352.98 271.87 348.52 287.26 349.77C294.86 350.39 302.25 348.52 309.64 347.74C318.93 346.77 328.21 344.24 337.55 344.91C348.93 345.73 360.1 343.65 371.2 342.59C379.01 341.84 386.57 340.08 394.42 341.78C390.67 344.09 386.93 346.39 383.18 348.7C369.55 349.96 355.9 351.13 342.28 352.48C301.4 356.54 260.53 360.73 219.64 364.73C187.13 367.91 154.61 370.92 122.09 373.94C115.96 374.51 111.38 377.43 107.99 382.41C102.94 389.82 99.97 398.13 98.08 406.79C96.74 412.93 101.9 417.91 108.2 417.26C118.68 416.18 129.19 415.36 139.67 414.32C163.15 411.99 186.62 409.51 210.11 407.25C231.08 405.23 252.06 403.44 273.04 401.54C283.08 401.82 293.1 401.87 302.94 399.35C315.99 397.62 329.01 395.57 342.1 394.22C369.93 391.34 397.81 389.04 425.62 386.01C432.59 385.25 440.1 386.42 446.45 382.06C451.7 390 451.72 390.18 443.06 391.18C415.52 394.37 387.96 397.42 360.41 400.53C347.47 401.88 334.52 403.18 321.58 404.6C308.02 406.09 294.48 407.67 280.93 409.24C264.05 411.19 247.18 413.19 230.3 415.13C217.8 416.57 205.28 417.94 192.78 419.36C175.06 421.38 157.34 423.43 139.61 425.43C127.29 426.82 114.99 428.46 102.64 429.4C86.37 430.63 78.71 423.51 80.68 406.86C82.15 394.44 79.21 383.07 76.88 371.42C64.98 312.13 52.86 252.88 40.87 193.61C35.54 167.27 30.07 140.95 25.16 114.53C22.64 100.94 21.22 87.1504 19.25 73.4504C19.01 71.8104 18.42 70.2204 18 68.6104L18.02 68.6404ZM135.84 288.78C136.13 288.71 136.43 288.64 136.72 288.58C135.22 283.42 133.54 278.3 132.25 273.09C128.06 256.12 126.83 238.6 121.2 221.82C116.36 207.4 114.37 192.09 110.76 177.24C106.74 160.7 103.71 143.87 98.52 127.68C91.5 105.76 84.26 83.8904 79.08 61.5004C77.02 52.6004 73.28 47.6504 64.54 46.2304C63.72 46.1004 62.92 45.7504 62.12 45.5004C48.61 41.2904 38.27 50.4804 41.31 64.1004C42.87 71.0704 44.25 78.1404 46.56 84.8704C52.71 102.77 56.4 121.33 60.71 139.65C65.11 158.37 68.47 177.4 72.13 196.33C77.7 225.17 85.96 253.47 89.02 282.83C91.23 304.05 98.65 324.25 102.75 345.12C103.74 350.14 106.52 348.55 109.25 347.24C120.18 342 131.12 337.23 143.63 341.87C145.67 342.63 147.74 341.86 146.86 339.04C145.1 333.43 144.73 327.57 143.14 321.89C140.11 311.02 138.2 299.84 135.83 288.79L135.84 288.78Z" fill="#8E1B14"/>
<path d="M273.08 401.55C252.1 403.44 231.11 405.24 210.15 407.26C186.66 409.52 163.19 412 139.71 414.33C129.22 415.37 118.72 416.19 108.24 417.27C101.94 417.92 96.78 412.94 98.12 406.8C100.01 398.13 102.98 389.83 108.03 382.42C111.43 377.44 116 374.52 122.13 373.95C154.65 370.93 187.17 367.92 219.68 364.74C260.57 360.74 301.44 356.54 342.32 352.49C355.94 351.14 369.59 349.96 383.22 348.71C384.833 356.037 389.003 359.377 395.73 358.73C417.74 356.64 439.76 354.57 461.77 352.49C459.83 358.81 455.15 363.86 453.52 370.32C450.15 373.64 449.23 378.41 446.47 382.09C440.12 386.44 432.61 385.28 425.64 386.04C397.83 389.07 369.95 391.37 342.12 394.25C329.03 395.6 316.01 397.65 302.96 399.38C292.87 398.39 282.97 400 273.06 401.57L273.08 401.55Z" fill="#718D81"/>
<path d="M394.47 341.78C386.62 340.08 379.06 341.84 371.25 342.59C360.16 343.65 348.99 345.73 337.6 344.91C328.26 344.24 318.98 346.77 309.69 347.74C302.3 348.52 294.91 350.39 287.31 349.77C271.92 348.51 257.02 352.98 241.81 354.02C229.9 354.83 218.01 355.96 206.12 357.2C180.5 359.89 154.8 361.48 128.99 361.36C119.9 361.32 111.48 365.96 103.54 370.11C99.22 372.36 97.53 378.01 95.54 382.65C92.82 388.97 90.26 395.36 87.49 402.08C84.36 393.39 91.18 374.74 98.83 364.51C107.44 352.98 119.85 352.23 132.32 351.05C139.51 350.37 146.51 352.14 153.6 352.76C157.37 353.09 159.27 352.72 159.24 347.04C159.15 333.14 156.95 319.86 152.31 306.91C149.12 298.03 146.88 288.9 144.56 279.79C143.14 274.2 146.05 269.9 151.63 268.77C177.1 263.62 198.36 270.2 214.4 291.28C215.1 292.2 215.9 292.7 217.02 292.75L216.99 292.71C217.19 293.94 217.07 295.36 217.65 296.37C226.55 311.8 225.1 328.31 222.52 344.83C221.81 349.34 223.59 350.13 227.18 349.73C238.38 348.48 249.53 347.17 260.84 346.6C270.96 346.1 281.24 345.99 291.48 344.17C304.16 341.93 317.58 344.84 330.11 339.81C330.67 339.59 331.45 339.48 331.98 339.7C339.31 342.64 346.45 337.11 353.91 339.43C359.13 341.05 363.89 337.11 369.25 336.82C378.64 336.32 387.95 334.39 397.29 333.06C396.74 329.42 393.24 328.84 392.14 326.54C383.09 307.47 378.48 287.99 389.12 267.99C394.81 257.28 403.11 249.32 417.67 256.58C419.04 254.33 418.32 252.22 417.42 250.02C415.36 244.97 412.64 240.01 410.97 235.05C407.59 225.05 404.04 215.33 398.14 206.55C398.8 205.75 400.13 204.82 400 204.18C398.54 196.77 404.52 198.27 408.28 197.02C410.54 196.27 411.27 196.9 412.36 199.14C422.57 220.23 430.43 242.31 439.88 263.72C440.46 265.04 440.95 266.41 441.48 267.77C441.32 277.25 439.07 286.65 443.76 296.02C449.27 307.03 453.6 318.64 458.57 330.3C455.16 330.96 452.11 331.56 449.07 332.15C439.68 333.67 430.05 333.31 420.75 335.56C411.48 335.44 402.38 336.06 394.49 341.76L394.47 341.78ZM177.86 323.35C175.89 322.36 173.69 320.41 171.92 323.16C168.85 327.92 172.95 333.99 179.11 334.12C183.22 328.93 182.95 326.55 177.86 323.35ZM426.55 319.81C429 319.28 431.22 317.97 431.5 314.77C431.85 310.8 427.53 306.45 423.24 306.02C419.27 305.63 418.47 308.95 418.91 311.03C419.72 314.85 421.05 319.07 426.56 319.8L426.55 319.81Z" fill="#BE1918"/>
<path d="M395.52 121.83C404.11 141.26 412.69 160.69 421.33 180.1C422.05 181.71 422.42 183.26 422.1 184.97C410.91 187.99 399.34 186.11 388.03 187.64C374.49 178.54 361.99 167.78 346.4 162.01C344.73 152.5 340.82 143.58 339.37 133.95C338.76 129.89 338.73 128.02 343.12 127.71C354.73 126.89 366.15 124.22 377.85 124.24C379.56 124.24 381.29 124.25 381.9 122.13C383.12 122.06 384.33 121.99 385.55 121.92C387.7 123.57 389.53 123.63 390.81 120.88C391.97 120.86 393.14 120.84 394.3 120.82C394.71 121.15 395.12 121.49 395.53 121.82L395.52 121.83ZM359.87 147.08C355.95 147.52 354.63 150.72 354.61 153.71C354.58 158.62 359.25 159.92 362.76 160.7C366.04 161.43 366.19 157.25 366.32 155.3C366.61 151.15 364.04 148.35 359.87 147.08Z" fill="#BE1918"/>
<path d="M307.11 288.53C301.53 286.72 299.81 282.55 297.51 278.82C286.35 260.74 273.58 243.8 260.75 226.9C257.96 223.23 255.16 219.56 252.35 215.9C250.44 213.41 250.32 211.69 254.11 211.46C272.09 210.37 289.98 208.04 308.03 207.88C312.48 207.84 313.52 208.99 313.32 213.58C312.33 236.44 309.23 259.09 307.14 281.84C306.95 283.92 307.11 286.02 307.11 288.53Z" fill="#BE1918"/>
<path d="M449.05 332.17C452.09 331.58 455.14 330.98 458.55 330.32C453.58 318.66 449.25 307.05 443.74 296.04C439.05 286.67 441.3 277.27 441.46 267.79C450.54 262.42 455.18 265.32 457.91 278.06C456.54 279.86 454.94 281.52 453.86 283.47C452.33 286.23 449.25 288.4 450.76 292.42C453.71 300.29 456.38 308.26 459.47 317.06C462.69 311.2 465.38 306.28 468.08 301.36C471.55 307.92 474.37 314.76 476.72 321.79C472.64 324.03 475.55 329.7 471.67 332.04C471.5 331.94 471.33 331.84 471.16 331.74C471.35 331.82 471.54 331.89 471.73 331.97C470.1 335.23 468.6 338.58 466.8 341.74C465.04 344.83 465.99 345.31 469.22 345.74C478.06 346.91 478.83 339.38 482.12 334.5C484.24 339.19 486.35 343.89 488.8 349.32C479.33 350.42 470.54 351.44 461.76 352.46C439.75 354.54 417.73 356.61 395.72 358.7C388.993 359.34 384.823 356 383.21 348.68C386.96 346.37 390.7 344.07 394.45 341.76C402.35 336.06 411.44 335.44 420.71 335.55C419.05 340.34 414.5 343.73 413.67 349.62C420.1 348.74 426.05 347.63 432.04 347.16C442.78 346.31 446.87 342.87 449.03 332.15L449.05 332.17Z" fill="#F2D38D"/>
<path d="M398.12 206.57C404.01 215.36 407.57 225.07 410.95 235.07C412.63 240.03 415.35 244.99 417.4 250.04C418.3 252.24 419.02 254.34 417.65 256.6C403.1 249.34 394.8 257.3 389.1 268.01C378.46 288.01 383.07 307.48 392.12 326.56C393.21 328.86 396.71 329.44 397.27 333.08C387.93 334.41 378.62 336.34 369.23 336.84C363.87 337.13 359.1 341.07 353.89 339.45C346.43 337.13 339.29 342.66 331.96 339.72C331.43 339.51 330.65 339.61 330.09 339.83C317.57 344.86 304.14 341.95 291.46 344.19C281.22 346 270.94 346.11 260.82 346.62C249.51 347.18 238.36 348.49 227.16 349.75C223.57 350.15 221.8 349.36 222.5 344.85C225.09 328.33 226.53 311.82 217.63 296.39C217.05 295.38 217.17 293.96 216.97 292.73C225.4 301.5 229.6 311.71 228 324.05C227.27 329.66 230.22 335.5 226.57 341.05C225.73 342.33 228.06 343.53 229.52 343.34C233.32 342.83 237.26 345.62 241.01 342.58C241.94 341.82 243.87 342.18 245.33 342.2C266.6 342.56 287.42 338.41 308.44 336.21C326.63 334.3 344.71 330.65 363.04 331C370.42 331.14 377.47 329.38 384.73 329.44C389.1 329.48 388.94 327.92 386.98 324.53C377.98 308.95 375.26 292.07 380.15 274.85C383.68 262.4 390.36 251.49 404.67 248.38C408.25 247.6 406.73 245.46 406.03 243.56C402.49 233.94 398.9 224.35 395.39 214.72C394.46 212.17 393.77 209.53 392.96 206.93C394.68 206.81 396.4 206.69 398.12 206.57Z" fill="#8E1B14"/>
<path d="M159.67 101.91C168.73 103.31 174.92 108.88 182.48 111.16C203.21 117.4 222.94 126.37 243.31 133.59C247.93 135.23 248.39 136.99 244.06 140.14C234.72 146.93 225.56 153.97 216.63 161.29C212.74 164.47 210.73 163.49 208.04 159.92C196.97 145.2 184.81 131.34 173.33 116.94C169.39 111.99 164.36 107.68 159.67 101.92V101.91Z" fill="#BE1918"/>
<path d="M360.37 72.44C347.79 63.09 337.69 51.88 333.37 36.37C331.77 30.6 328.22 28.73 322.2 29.13C303.8 30.35 285.7 28.67 268.46 21.46C265.81 13.03 265.81 13.12 274.99 12.68C287.19 12.1 299.38 11.37 311.57 10.7C307.06 14.34 302.99 18.39 299.17 23.55C309.02 25.55 317.51 20.62 326.47 21.26C327.46 21.33 328.7 19.5 329.65 18.4C331.98 15.7 334.21 12.91 336.48 10.16C343.69 8.14004 347.8 10.59 350.02 18C352.22 25.33 355.67 32.29 358.58 39.41C348.4 50.1 350.23 46.9 357.22 66.07C359.91 62.6 361.53 58.37 365.06 55.57C367.42 60.87 369.78 66.16 372.57 72.44H360.37Z" fill="#F2D38D"/>
<path d="M162.76 215.17C161.53 214.92 159.31 215.97 158.75 213.74C158.29 211.9 160.46 211.64 161.52 210.75C169.92 203.72 179.2 197.91 188.08 191.53C194.37 187.01 200.52 182.28 206.56 177.44C209.04 175.45 211.12 174.33 213.45 177.36C219.94 185.83 226.31 194.39 232.94 202.74C235.38 205.82 234.72 207.07 231.13 207.45C216.33 208.98 201.51 210.4 186.72 212.02C178.81 212.89 170.94 214.08 162.76 215.17Z" fill="#BE1918"/>
<path d="M314.3 171.31C313.04 175.79 311.77 180.28 310.51 184.77C309.59 184.89 308.94 185.35 308.85 186.3C308.83 186.52 309.34 187.02 309.54 186.99C310.54 186.85 310.75 186.02 310.85 185.17C312.38 184.94 314.5 181.54 314.68 186.68C315.21 201.84 315.44 201.38 300.18 202C283.61 202.67 267.07 204.2 250.54 205.54C245.83 205.92 242.93 204.31 240.11 200.35C233.89 191.63 227.02 183.35 220.2 175.07C217.54 171.84 217.48 169.23 220.88 166.89C224.16 164.64 226.89 161.54 230.83 160.29C231.3 162.65 229.3 163.47 228.07 164.81C226.68 166.33 227.09 167.89 228.44 169.25C229.49 170.31 230.8 171.63 232.23 170.74C234.28 169.47 232.1 168.35 231.65 167.15C230.96 165.31 232.21 165.09 233.57 164.94C235.75 164.7 236.78 166.74 238.52 167.37C239.03 167.69 239.54 168 240.05 168.32C240.9 171.9 237.23 172 235.12 173.69C239.71 176.71 243.57 179.77 246.41 183.65C250.21 188.86 255.2 191.91 261.12 193.87C263.69 194.72 266.19 195.77 268.71 196.76C280.94 201.55 289.74 193.18 299.62 188.82C300.78 188.31 302.52 188.18 302.62 186.92C303.05 181.49 308.36 178.63 309.43 173.67C310.12 170.48 312.26 171.2 314.31 171.3L314.3 171.31Z" fill="#BE1918"/>
<path d="M300.7 145.79C301.16 141.91 297.74 140.9 295.48 139.65C288.71 135.89 281.84 132.09 273.56 133.09C271.93 133.29 269.83 133.21 269.03 131.59C268.24 130 269.95 128.94 271.1 128.12C285.87 117.57 299.66 105.68 315.57 95.7002C316.95 103.15 317.24 110.36 317 117.61C316.61 129.36 316.06 141.11 315.87 152.87C315.81 156.84 314.88 157.83 311.22 155.85C308.75 154.51 306.54 153.26 305.54 150.35C304.77 148.11 304.03 145.43 300.67 145.77L300.69 145.8L300.7 145.79Z" fill="#BE1918"/>
<path d="M446.48 382.08C449.24 378.4 450.16 373.63 453.53 370.31C457.53 379.98 461.53 389.65 465.85 400.09C453.55 401.4 441.78 402.73 429.99 403.89C410.94 405.76 391.89 407.62 372.82 409.3C363.57 410.11 363.56 409.92 360.43 400.55C387.98 397.44 415.54 394.39 443.08 391.2C451.74 390.2 451.73 390.02 446.47 382.08H446.48Z" fill="#F2D38D"/>
<path d="M381.89 122.13C381.28 124.26 379.55 124.25 377.84 124.24C366.15 124.22 354.72 126.89 343.11 127.71C338.72 128.02 338.75 129.88 339.36 133.95C340.8 143.58 344.72 152.5 346.39 162.01C339.23 166.28 338.43 165.64 337.21 157.68C336.05 150.06 335.3 142.11 329.88 135.85C330.15 126.67 331.83 124.63 340.89 122.86C345.62 121.94 350.39 121.25 355.13 120.42C357.4 120.02 359.31 119.53 357.91 116.36C353.27 105.81 348.62 95.2603 344.32 84.5803C343.05 81.4203 341.57 80.1903 338.06 79.7603C326.16 78.2903 315.31 73.9803 306.3 65.8103C304.45 64.1303 301.71 62.7203 302.11 58.5103C308.28 63.9003 313.95 68.7503 321.17 71.2503C327.22 73.3403 333.16 74.5303 339.66 72.8503C342.32 72.1603 346.2 69.8303 348.12 74.8303C351.17 82.7903 354.82 90.5303 356.41 98.9803C356.3 99.1403 356.19 99.3103 356.08 99.4703C356.17 99.2903 356.27 99.1103 356.36 98.9403C360.81 102.19 361.09 107.52 362.53 112.12C364.08 117.06 365.69 120.49 371.81 118.09C373.8 117.31 376.43 118.68 378.18 116.52C379.41 118.39 380.64 120.27 381.87 122.14L381.89 122.13Z" fill="#8E1B14"/>
<path d="M314.3 171.31C312.25 171.21 310.11 170.48 309.42 173.68C308.35 178.64 303.05 181.49 302.61 186.93C302.51 188.19 300.77 188.32 299.61 188.83C289.74 193.19 280.93 201.56 268.7 196.77C266.18 195.78 263.68 194.73 261.11 193.88C255.19 191.92 250.2 188.86 246.4 183.66C243.56 179.78 239.7 176.72 235.11 173.7C237.22 172.01 240.89 171.91 240.04 168.33C247.75 172.4 255.67 176 263.99 178.66H263.91C264.84 179.89 266.21 179.85 267.55 179.89C275.87 180.33 284.31 183.58 292.4 178.78C294.05 178.85 295.69 178.92 296.82 177.37L296.72 177.42L298.07 176.15L297.96 176.17C307.43 173.37 309.12 169.94 305.4 161.38C304.84 160.09 304.77 158.59 304.47 157.19L304.4 157.25C307.09 159.41 308.81 162.65 312.09 164.17C312.28 165.3 312.68 165.69 313.54 164.61C316.01 166.59 314.28 169.05 314.3 171.31ZM277.7 189.5C271.03 186.97 263.51 187.54 257.69 182.87C257.37 182.61 256.41 182.79 255.97 183.1C255.07 183.72 255.48 184.59 256.01 185.25C257.47 187.06 259.17 188.39 261.52 189.16C266.89 190.92 272.29 189.82 277.7 189.51V189.5Z" fill="#8E1B14"/>
<path d="M330.22 200.56C319.57 200.88 319.27 200.85 320.05 191.65C320.56 185.59 321.04 179.55 320.91 173.48C320.84 170.31 322.29 168.8 325.02 170.22C329.6 172.6 336.04 172.93 338.39 177.78C341.34 183.88 342.62 190.8 344.42 197.42C344.92 199.26 343.06 199 341.94 199.31C337.85 200.46 333.67 200.67 330.23 200.55L330.22 200.56Z" fill="#BE1918"/>
<path d="M372.82 186.39C376.29 188.3 379.61 190.58 383.28 191.96C385.09 192.64 386.46 193.32 386.45 195.03C386.45 197.16 384.26 197.36 382.73 197.64C375.09 199.06 367.35 199.12 359.61 199.21C355.3 199.26 349.45 201.74 347.12 199.78C344.63 197.68 345.58 191.62 344.82 187.32C344.24 184.04 343.32 180.82 342.56 177.57C341.26 172.04 343.46 169.49 350.15 168.78C351.25 174.85 352.49 180.91 353.38 187.01C353.65 188.88 354.65 189.04 355.85 188.86C361.5 188.01 367.34 188.41 372.83 186.39H372.82Z" fill="#8E1B14"/>
<path d="M238.52 167.38C236.78 166.75 235.75 164.71 233.57 164.95C232.21 165.1 230.96 165.32 231.65 167.16C232.1 168.35 234.28 169.47 232.23 170.75C230.8 171.64 229.48 170.32 228.44 169.26C227.09 167.9 226.68 166.34 228.07 164.82C229.3 163.48 231.29 162.66 230.83 160.3C239.5 152.74 247.91 144.8 257.46 138.37C266.48 132.29 285.59 135.01 296.46 143.41C297.78 144.43 298.75 145.94 300.7 145.8L300.68 145.77C300.89 148.92 303.76 151.34 303.16 154.71L303.2 154.68C295.41 148.31 287.85 141.45 276.71 142.2C272.13 137.04 262.34 139.21 260.11 145.88C255.7 148.94 251.15 151.81 246.94 155.12C242.93 158.28 239 161.71 238.53 167.39L238.52 167.38Z" fill="#8E1B14"/>
<path d="M468.1 301.36C465.4 306.28 462.7 311.2 459.49 317.06C456.4 308.26 453.73 300.28 450.78 292.42C449.27 288.4 452.35 286.23 453.88 283.47C454.96 281.52 456.56 279.85 457.93 278.06C462.54 285.3 465.3 293.35 468.11 301.37L468.1 301.36Z" fill="#FDFDFE"/>
<path d="M336.48 10.1603C334.21 12.9103 331.98 15.7003 329.65 18.4003C328.7 19.5003 327.47 21.3303 326.47 21.2603C317.51 20.6203 309.02 25.5403 299.17 23.5503C302.99 18.3903 307.06 14.3403 311.57 10.7003C319.87 10.3903 328.15 9.11034 336.48 10.1603Z" fill="#FDFDFE"/>
<path d="M388.03 187.64C399.34 186.12 410.91 188 422.1 184.97C421.57 188.6 421.04 192.22 420.25 197.6C417.49 192.24 414.67 192.74 410.79 193.78C405.75 195.13 400.25 195.26 394.97 195.1C390.75 194.97 390.43 190.09 388.04 187.64H388.03Z" fill="#8E1B14"/>
<path d="M372.82 186.39C367.34 188.41 361.5 188.01 355.84 188.86C354.65 189.04 353.64 188.88 353.37 187.01C352.48 180.91 351.25 174.85 350.14 168.78C358.58 171.82 362.93 180.08 370.29 184.5C371.19 185.04 371.97 185.76 372.81 186.39H372.82Z" fill="#BE1918"/>
<path d="M471.69 332.05C475.57 329.71 472.66 324.04 476.74 321.8C478.54 326.04 480.34 330.28 482.14 334.52C478.86 339.4 478.09 346.93 469.24 345.76C466 345.33 465.06 344.84 466.82 341.76C468.62 338.59 470.12 335.25 471.75 331.99L471.69 332.05Z" fill="#FDFDFE"/>
<path d="M365.06 55.5804C361.53 58.3804 359.91 62.6104 357.22 66.0804C350.23 46.9104 348.4 50.1104 358.58 39.4204C360.74 44.8104 362.9 50.1904 365.06 55.5804Z" fill="#FDFDFE"/>
<path d="M390.8 120.89C389.52 123.64 387.69 123.59 385.54 121.93C386.97 119.94 388.91 120.53 390.8 120.89Z" fill="#8E1B14"/>
<path d="M303.15 154.7C304.29 155.2 304.51 156.15 304.4 157.26L304.47 157.2C303.38 156.69 303.14 155.76 303.2 154.67L303.16 154.7H303.15Z" fill="#8E1B14"/>
<path d="M313.54 164.61C312.69 165.69 312.28 165.3 312.09 164.17C312.57 164.31 313.05 164.46 313.54 164.61Z" fill="#BE1918"/>
<path d="M395.52 121.83C395.11 121.5 394.7 121.16 394.29 120.83C395.08 120.7 395.43 121.1 395.52 121.83Z" fill="#8E1B14"/>
<path d="M130.89 72.53C132.56 75.07 133.3 77.18 129.69 79.01C126.51 80.63 123.88 81.32 121.47 78.04C119.6 75.49 117.34 72.82 119.82 69.67C122.03 66.86 124.95 65.41 128.31 68.32C126.11 68.6 124.62 69.76 123.83 71.88C126.11 73.28 128.3 75.01 130.9 72.53H130.89Z" fill="#F2D38D"/>
<path d="M318.14 53.6205C317.46 50.3805 318.13 48.0605 320.57 48.5105C324.78 49.2905 328.34 51.8405 329.06 56.4305C329.29 57.9405 329.09 61.1205 326.11 60.7605C321.53 60.2005 317.34 58.7805 318.14 53.6205Z" fill="#F2D38D"/>
<path d="M130.89 72.5303C128.29 75.0103 126.1 73.2803 123.82 71.8803C124.61 69.7503 126.11 68.6003 128.3 68.3203C129.98 69.2203 130.99 70.5303 130.88 72.5303H130.89Z" fill="#FDFDFE"/>
<path d="M293.04 47.0201C288.99 45.4301 288.42 41.8401 287.94 38.1901L287.99 38.1401C291.07 40.3101 292.1 43.6401 293.02 47.0301L293.04 47.0201Z" fill="#8E1B14"/>
<path d="M296.86 52.0601C298.45 53.0601 300.1 54.0101 300.21 56.9701C297.13 56.3901 296.66 54.5101 296.79 52.1401L296.86 52.0601Z" fill="#8E1B14"/>
<path d="M296.79 52.14C293.51 51.92 292.88 49.76 293.04 47.02L293.02 47.03C295.28 47.96 295.8 50.21 296.85 52.06L296.78 52.14H296.79Z" fill="#8E1B14"/>
<path d="M135.84 288.78C138.21 299.83 140.12 311.01 143.15 321.88C144.73 327.56 145.11 333.42 146.87 339.03C147.75 341.84 145.68 342.61 143.64 341.86C131.13 337.22 120.18 341.99 109.26 347.23C106.53 348.54 103.75 350.13 102.76 345.11C98.65 324.24 91.2399 304.04 89.0299 282.82C85.9699 253.45 77.7 225.16 72.14 196.32C68.49 177.4 65.13 158.37 60.72 139.64C56.41 121.32 52.73 102.76 46.57 84.8603C44.26 78.1303 42.87 71.0603 41.32 64.0903C38.28 50.4703 48.62 41.2803 62.13 45.4903C62.94 45.7403 63.73 46.0803 64.55 46.2203C73.29 47.6403 77.0299 52.5903 79.0899 61.4903C84.2699 83.8803 91.4999 105.76 98.5299 127.67C103.72 143.86 106.75 160.7 110.77 177.23C114.38 192.08 116.37 207.4 121.21 221.81C126.84 238.6 128.07 256.11 132.26 273.08C133.55 278.29 135.23 283.41 136.73 288.57C136.44 288.64 136.14 288.71 135.85 288.77L135.84 288.78Z" fill="#BE1918"/>
<path d="M273.08 401.55C282.99 399.99 292.89 398.38 302.98 399.36C293.14 401.88 283.12 401.82 273.08 401.55Z" fill="#BE1918"/>
<path d="M449.05 332.17C446.89 342.9 442.8 346.33 432.06 347.18C426.06 347.66 420.12 348.76 413.69 349.64C414.52 343.75 419.07 340.36 420.73 335.57C430.04 333.32 439.66 333.69 449.05 332.16V332.17Z" fill="#FDFDFE"/>
<path d="M426.55 319.81C421.05 319.07 419.71 314.86 418.9 311.04C418.46 308.96 419.27 305.64 423.23 306.03C427.52 306.45 431.84 310.81 431.49 314.78C431.21 317.98 428.99 319.29 426.54 319.82L426.55 319.81Z" fill="#F2D38D"/>
<path d="M179.11 334.12C172.95 334 168.86 327.92 171.92 323.16C173.69 320.41 175.9 322.36 177.86 323.35C179.2 326.83 179.53 330.43 179.11 334.12Z" fill="#F2D38D"/>
<path d="M179.11 334.12C179.54 330.43 179.2 326.83 177.86 323.35C182.95 326.55 183.22 328.93 179.11 334.12Z" fill="#FDFDFE"/>
<path d="M359.87 147.09C364.04 148.36 366.61 151.16 366.32 155.31C366.18 157.25 366.04 161.44 362.76 160.71C359.25 159.93 354.58 158.64 354.61 153.72C354.63 150.73 355.95 147.53 359.87 147.09Z" fill="#F2D38D"/>
<path d="M471.75 331.98C471.56 331.9 471.37 331.83 471.18 331.75C471.35 331.85 471.52 331.95 471.69 332.05L471.75 331.99V331.98Z" fill="#FDFDFE"/>
<path d="M303.19 154.67C303.13 155.76 303.37 156.69 304.46 157.2C304.76 158.6 304.83 160.1 305.39 161.39C309.12 169.95 307.43 173.38 297.95 176.18C297.86 173.27 297.96 170.33 297.63 167.44C297.38 165.21 296.95 162.18 294.31 162C288 161.56 281.96 159.63 275.31 160.84C263.99 162.89 260.48 167.61 263.98 178.66C255.66 176 247.74 172.4 240.03 168.33C239.52 168.01 239.01 167.7 238.5 167.38C238.97 161.7 242.89 158.27 246.91 155.11C251.12 151.8 255.68 148.93 260.08 145.87C265.61 144.64 271.15 143.42 276.68 142.19C287.83 141.44 295.38 148.31 303.17 154.67H303.19ZM288.28 154.44C288.28 154.44 290.96 155.32 290.4 152.15C289.87 149.15 287.63 148.44 284.9 148.32C283 148.24 281.23 148.35 281.71 150.72C282.21 153.21 283.48 155.39 288.29 154.44H288.28Z" fill="#1E212F"/>
<path d="M310.85 185.16C310.75 186.02 310.54 186.84 309.54 186.98C309.33 187.01 308.83 186.51 308.85 186.29C308.94 185.34 309.59 184.87 310.51 184.76L310.85 185.16Z" fill="#1E212F"/>
<path d="M356.37 98.9302C356.28 99.1102 356.18 99.2902 356.09 99.4602C356.2 99.3002 356.31 99.1302 356.42 98.9702L356.38 98.9302H356.37Z" fill="#BE1918"/>
<path d="M263.99 178.66C260.48 167.61 264 162.89 275.32 160.84C281.97 159.64 288.02 161.57 294.32 162C296.96 162.18 297.38 165.2 297.64 167.44C297.97 170.33 297.87 173.26 297.96 176.18L298.07 176.16C296.98 175.91 296.55 176.35 296.72 177.43L296.82 177.38C294.96 176.64 293.54 177.28 292.4 178.79C284.31 183.59 275.87 180.34 267.55 179.9C266.67 178.51 265.28 178.61 263.91 178.66H263.99Z" fill="#718D81"/>
<path d="M277.7 189.51C272.29 189.83 266.89 190.92 261.52 189.16C259.17 188.39 257.47 187.06 256.01 185.25C255.48 184.6 255.07 183.72 255.97 183.1C256.41 182.8 257.36 182.62 257.69 182.87C263.52 187.55 271.04 186.97 277.7 189.5V189.51Z" fill="#BE1918"/>
<path d="M292.4 178.78C293.54 177.28 294.96 176.63 296.82 177.37C295.69 178.92 294.04 178.85 292.4 178.78Z" fill="#1E212F"/>
<path d="M263.91 178.65C265.28 178.6 266.67 178.5 267.55 179.89C266.21 179.85 264.84 179.89 263.91 178.65Z" fill="#1E212F"/>
<path d="M296.72 177.43C296.55 176.35 296.98 175.91 298.07 176.16C297.62 176.58 297.17 177.01 296.72 177.43Z" fill="#1E212F"/>
<path d="M276.7 142.19C271.17 143.42 265.63 144.64 260.1 145.87C262.33 139.2 272.12 137.03 276.7 142.19Z" fill="#BE1918"/>
<path d="M288.28 154.44C283.47 155.39 282.2 153.21 281.7 150.72C281.23 148.35 282.99 148.24 284.89 148.32C287.63 148.44 289.86 149.15 290.39 152.15C290.95 155.32 288.3 154.43 288.27 154.44H288.28Z" fill="#FDFDFE"/>
</g>
<defs>
<filter id="filter0_d_53_2" x="0" y="0" width="502.47" height="447.81" filterUnits="userSpaceOnUse" color-interpolation-filters="sRGB">
<feFlood flood-opacity="0" result="BackgroundImageFix"/>
<feColorMatrix in="SourceAlpha" type="matrix" values="0 0 0 0 0 0 0 0 0 0 0 0 0 0 0 0 0 0 127 0" result="hardAlpha"/>
<feOffset dy="4"/>
<feGaussianBlur stdDeviation="2"/>
<feComposite in2="hardAlpha" operator="out"/>
<feColorMatrix type="matrix" values="0 0 0 0 0 0 0 0 0 0 0 0 0 0 0 0 0 0 0.25 0"/>
<feBlend mode="normal" in2="BackgroundImageFix" result="effect1_dropShadow_53_2"/>
<feBlend mode="normal" in="SourceGraphic" in2="effect1_dropShadow_53_2" result="shape"/>
</filter>
</defs>
</svg>
